<?xml version="1.0" encoding="UTF-8"?>
<svg version="1.1" xmlns="http://www.w3.org/2000/svg" width="225" height="225">
<path d="M0 0 C74.25 0 148.5 0 225 0 C225 74.25 225 148.5 225 225 C150.75 225 76.5 225 0 225 C0 150.75 0 76.5 0 0 Z " fill="#FEFEFE" transform="translate(0,0)"/>
<path d="M0 0 C4.35702755 1.54735558 6.58702068 4.93129807 9.25 8.5 C9.70890625 9.09425781 10.1678125 9.68851563 10.640625 10.30078125 C14 14.72995722 14 14.72995722 14 17 C12.37446717 18.70680947 10.70884005 20.37660195 9 22 C9.7425 21.484375 10.485 20.96875 11.25 20.4375 C14 19 14 19 15.859375 19.0234375 C19.17357611 20.53539056 20.91138451 23.31723599 23 26.1875 C23.63808594 27.03538086 23.63808594 27.03538086 24.2890625 27.90039062 C26.99046388 31.51745106 29.52527261 35.22489502 32 39 C30.02 41.475 30.02 41.475 28 44 C29.98 43.01 31.96 42.02 34 41 C36.345111 43.92827026 38.67397918 46.86905087 41 49.8125 C41.66773438 50.64587891 42.33546875 51.47925781 43.0234375 52.33789062 C43.65507812 53.14033203 44.28671875 53.94277344 44.9375 54.76953125 C45.52402344 55.50792236 46.11054688 56.24631348 46.71484375 57.00708008 C48 59 48 59 48 62 C45.5 64.6875 45.5 64.6875 43 67 C45.64 65.68 48.28 64.36 51 63 C54.63 67.62 58.26 72.24 62 77 C60.60804085 79.7839183 58.84424221 79.97898997 56 81 C56.33 81.99 56.66 82.98 57 84 C44.6251917 88.10538664 34.05089749 90.37289045 21 88 C20.67 86.68 20.34 85.36 20 84 C19.43539062 84.35835938 18.87078125 84.71671875 18.2890625 85.0859375 C15.33277892 86.26643299 14.29003642 85.81190408 11.375 84.625 C5.58115716 82.09396018 0.40123811 78.55239175 -4 74 C-4.77734375 71.75 -4.77734375 71.75 -5 70 C-4.34 70 -3.68 70 -3 70 C-2.67 68.68 -2.34 67.36 -2 66 C-3.98 66.99 -5.96 67.98 -8 69 C-13.43108389 62.1568343 -16.70275202 54.68075109 -18 46 C-17.09375 43.58203125 -17.09375 43.58203125 -16 42 C-15.34 42 -14.68 42 -14 42 C-13.67 40.68 -13.34 39.36 -13 38 C-14.65 38.66 -16.3 39.32 -18 40 C-19.05053571 25.7360596 -14.59927391 14.35017513 -6 3 C-5.34 2.67 -4.68 2.34 -4 2 C-3.67 2.66 -3.34 3.32 -3 4 C-2.01 2.68 -1.02 1.36 0 0 Z " fill="#ECF1F5" transform="translate(86,59)"/>
<path d="M0 0 C4.05825211 1.69610155 6.6536167 5.26885974 9.046875 8.85546875 C9.609375 12.23046875 9.609375 12.23046875 9.046875 14.85546875 C8.386875 15.51546875 7.726875 16.17546875 7.046875 16.85546875 C6.180625 16.54609375 5.314375 16.23671875 4.421875 15.91796875 C1.11396709 15.51859889 1.11396709 15.51859889 -0.84375 17.22265625 C-13.62865145 30.56123454 -17.66954813 47.11467148 -17.328125 65.02734375 C-16.61759985 80.72994964 -8.89991718 93.87611312 2.31640625 104.56640625 C6.88388528 108.39550884 11.69901898 111.25063449 17.046875 113.85546875 C18.32691406 114.50708984 18.32691406 114.50708984 19.6328125 115.171875 C32.41378247 120.55037703 50.65961193 119.89964507 63.5390625 114.98828125 C64.36664063 114.61445313 65.19421875 114.240625 66.046875 113.85546875 C67.16449219 113.38753906 67.16449219 113.38753906 68.3046875 112.91015625 C71.67122345 111.28822193 72.92903134 110.12865178 74.421875 106.66796875 C74.73125 105.27578125 74.73125 105.27578125 75.046875 103.85546875 C76.046875 102.85546875 76.046875 102.85546875 78.37109375 102.53125 C81.046875 102.85546875 81.046875 102.85546875 83.06640625 104.6484375 C83.65808594 105.43863281 84.24976563 106.22882813 84.859375 107.04296875 C85.46394531 107.82027344 86.06851563 108.59757812 86.69140625 109.3984375 C88.22846821 112.18463916 88.48387037 113.72279108 88.046875 116.85546875 C86.046875 118.85546875 86.046875 118.85546875 83.609375 118.98046875 C82.76375 118.93921875 81.918125 118.89796875 81.046875 118.85546875 C77.40721684 118.85546875 75.84579479 119.91933465 72.671875 121.66796875 C66.31703132 124.9541532 60.05275457 126.56729089 53.046875 127.85546875 C54.036875 130.82546875 55.026875 133.79546875 56.046875 136.85546875 C56.85511719 136.86964844 57.66335937 136.88382813 58.49609375 136.8984375 C67.24421377 137.28888435 67.24421377 137.28888435 71.234375 140.10546875 C73.046875 142.85546875 73.046875 142.85546875 74.046875 147.85546875 C53.256875 147.85546875 32.466875 147.85546875 11.046875 147.85546875 C12.15202511 142.3297182 12.45261569 140.94775867 17.046875 137.85546875 C21.41133131 137.43224874 25.67636319 137.56751409 30.046875 137.85546875 C31.036875 134.55546875 32.026875 131.25546875 33.046875 127.85546875 C31.665 127.79359375 30.283125 127.73171875 28.859375 127.66796875 C17.08332 126.43887415 7.40591957 120.78143822 -1.953125 113.85546875 C-2.93732422 113.14970703 -2.93732422 113.14970703 -3.94140625 112.4296875 C-16.38967588 102.7286222 -23.87877534 87.0441323 -26.953125 71.85546875 C-27.39297316 67.59583323 -27.47814662 63.38575002 -27.453125 59.10546875 C-27.44740479 57.96384277 -27.44168457 56.8222168 -27.43579102 55.64599609 C-27.05985199 37.81610684 -19.97257059 23.92210847 -7.765625 11.1171875 C-5.22342602 7.94491765 -5.11879135 5.83146119 -4.953125 1.85546875 C-1.953125 -0.14453125 -1.953125 -0.14453125 0 0 Z " fill="#A26F3E" transform="translate(77.953125,36.14453125)"/>
<path d="M0 0 C0.94921875 1.84765625 0.94921875 1.84765625 1.6875 4.0625 C1.93886719 4.79597656 2.19023437 5.52945313 2.44921875 6.28515625 C2.63097656 6.85105469 2.81273437 7.41695312 3 8 C3.80824219 8.01417969 4.61648437 8.02835938 5.44921875 8.04296875 C14.19733877 8.4334156 14.19733877 8.4334156 18.1875 11.25 C20 14 20 14 21 19 C0.21 19 -20.58 19 -42 19 C-40.89484989 13.47424945 -40.59425931 12.09228992 -36 9 C-31.63554369 8.57677999 -27.37051181 8.71204534 -23 9 C-22.71125 7.88625 -22.4225 6.7725 -22.125 5.625 C-21 2 -21 2 -19 0 C-16.32504551 -0.33473315 -13.74743998 -0.55762164 -11.0625 -0.6875 C-10.33353516 -0.73455078 -9.60457031 -0.78160156 -8.85351562 -0.83007812 C-5.58041124 -1.01308396 -3.1375757 -1.04585857 0 0 Z " fill="#A16D3C" transform="translate(131,165)"/>
<path d="M0 0 C2.99285792 1.85742317 4.85395338 4.55903258 6.89453125 7.36328125 C7.31992188 7.92853516 7.7453125 8.49378906 8.18359375 9.07617188 C10.88499513 12.69323231 13.41980386 16.40067627 15.89453125 20.17578125 C13.5017208 22.11711803 11.10546662 24.05391523 8.70703125 25.98828125 C7.69672852 26.8090918 7.69672852 26.8090918 6.66601562 27.64648438 C3.20006143 30.43615482 -0.19855442 33.01370245 -4.10546875 35.17578125 C-16.07536403 18.96295479 -16.07536403 18.96295479 -16.125 12.71875 C-14.63742755 9.00836814 -11.91133923 7.1099329 -8.79296875 4.80078125 C-8.21095703 4.33800781 -7.62894531 3.87523438 -7.02929688 3.3984375 C-2.86578146 0.23925819 -2.86578146 0.23925819 0 0 Z " fill="#0476AE" transform="translate(102.10546875,77.82421875)"/>
<path d="M0 0 C7.31969512 3.34336407 14.66606036 10.24199243 19 17 C17.6656572 21.00302841 15.01194122 22.57317283 11.75 25 C11.17636719 25.43828125 10.60273438 25.8765625 10.01171875 26.328125 C6.78330431 28.76965939 3.52040844 30.98833804 0 33 C-5.77414866 26.25588566 -11.30257468 19.56170904 -16 12 C-13.89674758 10.37380483 -11.79244271 8.74900468 -9.6875 7.125 C-9.09259766 6.66480469 -8.49769531 6.20460938 -7.88476562 5.73046875 C-5.29971995 3.73752851 -2.71700932 1.81133955 0 0 Z " fill="#0376AE" transform="translate(120,63)"/>
<path d="M0 0 C3.78869299 3.64533703 7.10514381 7.46256441 10.3125 11.625 C10.9940918 12.48351562 10.9940918 12.48351562 11.68945312 13.359375 C15 17.64068374 15 17.64068374 15 21 C13.11546663 22.66230066 11.28617948 24.11113021 9.25 25.5625 C8.71117188 25.96146484 8.17234375 26.36042969 7.6171875 26.77148438 C4.8525802 28.7909963 2.12652373 30.59609978 -1 32 C-5.85794609 28.23680232 -10.69213644 24.445066 -15.1875 20.25 C-15.75855469 19.71890625 -16.32960938 19.1878125 -16.91796875 18.640625 C-18 17 -18 17 -17.7902832 15.08374023 C-16.80219216 12.47843993 -15.6845188 11.64130938 -13.4375 10.01953125 C-12.72335938 9.49552734 -12.00921875 8.97152344 -11.2734375 8.43164062 C-10.52320312 7.89732422 -9.77296875 7.36300781 -9 6.8125 C-7.52060126 5.73599594 -6.04142287 4.65918897 -4.5625 3.58203125 C-3.90378906 3.10999268 -3.24507812 2.6379541 -2.56640625 2.15161133 C-1.03922095 1.08950851 -1.03922095 1.08950851 0 0 Z " fill="#0D4A70" transform="translate(119,100)"/>
<path d="M0 0 C2.34924742 0.686297 3.70473471 1.55581477 5.06396484 3.60058594 C6.16552523 5.66736731 7.18839262 7.75681738 8.1875 9.875 C8.54263672 10.59558594 8.89777344 11.31617187 9.26367188 12.05859375 C10.86482434 15.35812237 12.19771991 18.40741866 13 22 C10.76175998 23.87018719 8.51136473 25.72065432 6.25 27.5625 C5.61578125 28.09552734 4.9815625 28.62855469 4.328125 29.17773438 C3.709375 29.67724609 3.090625 30.17675781 2.453125 30.69140625 C1.88754883 31.15748291 1.32197266 31.62355957 0.73925781 32.10375977 C-1 33 -1 33 -3.01367188 32.8828125 C-5.561969 31.750236 -6.5783386 30.41924289 -8.234375 28.18359375 C-8.80800781 27.41982422 -9.38164062 26.65605469 -9.97265625 25.86914062 C-10.55917969 25.06669922 -11.14570313 24.26425781 -11.75 23.4375 C-12.35199219 22.63119141 -12.95398438 21.82488281 -13.57421875 20.99414062 C-15.05889209 19.00279304 -16.53355887 17.00479106 -18 15 C-14.31911357 11.15274582 -10.43814081 7.88614275 -6.1875 4.6875 C-5.59001953 4.23310547 -4.99253906 3.77871094 -4.37695312 3.31054688 C-2.92052412 2.20366083 -1.46062183 1.10134736 0 0 Z " fill="#0D4A70" transform="translate(140,84)"/>
<path d="M0 0 C7.7927267 3.29947365 14.35332271 7.62324726 20 14 C20.62084961 16.13647461 20.62084961 16.13647461 21 18 C18.40857428 20.03761476 15.80001022 22.05201277 13.1875 24.0625 C12.08051758 24.93358398 12.08051758 24.93358398 10.95117188 25.82226562 C10.23896484 26.36689453 9.52675781 26.91152344 8.79296875 27.47265625 C8.1383667 27.98062744 7.48376465 28.48859863 6.80932617 29.01196289 C6.21224854 29.33801514 5.6151709 29.66406738 5 30 C1.66209265 28.88736422 1.02812376 28.09509961 -1.125 25.4375 C-5.02498292 20.81931894 -9.40786733 16.91528772 -14 13 C-12.47605205 8.79467528 -9.3847135 6.74995834 -5.875 4.25 C-5.03001953 3.63318359 -5.03001953 3.63318359 -4.16796875 3.00390625 C-2.78398366 1.99523915 -1.39269459 0.99660714 0 0 Z " fill="#0476AE" transform="translate(138,49)"/>
<path d="M0 0 C3.35569463 2.78942116 5.04443588 6.56679618 7 10.375 C9.22548983 14.6586496 11.46090826 18.88984524 14 23 C11.56811635 24.98614997 9.12858026 26.96266831 6.6875 28.9375 C5.65206055 29.78344727 5.65206055 29.78344727 4.59570312 30.64648438 C3.92861328 31.18466797 3.26152344 31.72285156 2.57421875 32.27734375 C1.65515747 33.02359009 1.65515747 33.02359009 0.7175293 33.78491211 C-1 35 -1 35 -4 36 C-9.43108389 29.1568343 -12.70275202 21.68075109 -14 13 C-12.94786131 8.73648278 -9.28593916 6.67960167 -5.875 4.25 C-5.03001953 3.63318359 -5.03001953 3.63318359 -4.16796875 3.00390625 C-2.78398366 1.99523915 -1.39269459 0.99660714 0 0 Z " fill="#0476AE" transform="translate(82,92)"/>
<path d="M0 0 C3.5948935 1.48670172 4.34032307 5.46275174 5.76318359 8.84863281 C9.79792642 19.48955669 9.79792642 19.48955669 7.87255859 24.77441406 C5.7092673 26.74234837 3.67336751 28.40595145 1.31005859 30.08691406 C0.69453125 30.54130859 0.07900391 30.99570313 -0.55517578 31.46386719 C-2.07030124 32.57965725 -3.59772174 33.67871778 -5.12744141 34.77441406 C-7.58812856 31.08338333 -9.65403085 27.24192496 -11.75244141 23.33691406 C-12.17267578 22.57314453 -12.59291016 21.809375 -13.02587891 21.02246094 C-13.62142578 19.91161133 -13.62142578 19.91161133 -14.22900391 18.77832031 C-14.5933252 18.10615479 -14.95764648 17.43398926 -15.33300781 16.74145508 C-16.12744141 14.77441406 -16.12744141 14.77441406 -16.12744141 10.77441406 C-14.21920947 8.46310435 -11.75474958 6.77555492 -9.37744141 4.96191406 C-8.74322266 4.44693359 -8.10900391 3.93195313 -7.45556641 3.40136719 C-6.52744141 2.67916992 -6.52744141 2.67916992 -5.58056641 1.94238281 C-5.01499023 1.50176514 -4.44941406 1.06114746 -3.86669922 0.60717773 C-2.12744141 -0.22558594 -2.12744141 -0.22558594 0 0 Z " fill="#0E4B71" transform="translate(161.12744140625,69.2255859375)"/>
<path d="M0 0 C4.14908218 3.53504514 8.2646645 7.09876425 12.3125 10.75 C13.57513672 11.88695312 13.57513672 11.88695312 14.86328125 13.046875 C16.27105931 14.33369224 17.65134554 15.65134554 19 17 C17.06695667 18.65132849 15.12895263 20.29611041 13.1875 21.9375 C12.36668945 22.64036133 12.36668945 22.64036133 11.52929688 23.35742188 C9.02785775 25.46469483 7.13297093 26.95567636 4 28 C-3.35103965 25.29917358 -10.95598899 21.12698984 -16 15 C-16 14.01 -16 13.02 -16 12 C-14.53125 10.55786133 -14.53125 10.55786133 -12.5 9.08203125 C-11.778125 8.55029297 -11.05625 8.01855469 -10.3125 7.47070312 C-9.549375 6.92349609 -8.78625 6.37628906 -8 5.8125 C-7.236875 5.25369141 -6.47375 4.69488281 -5.6875 4.11914062 C-3.79780763 2.73730308 -1.90198676 1.3648399 0 0 Z " fill="#0C4A70" transform="translate(97,117)"/>
<path d="M0 0 C4.35702755 1.54735558 6.58702068 4.93129807 9.25 8.5 C9.93835938 9.39138672 9.93835938 9.39138672 10.640625 10.30078125 C14 14.72995722 14 14.72995722 14 17 C12.11549324 18.58820066 10.23813233 20.05282461 8.25 21.5 C7.44175781 22.10521484 7.44175781 22.10521484 6.6171875 22.72265625 C3.85197831 24.76621329 1.14376045 26.59599048 -2 28 C-4.49286655 17.53886358 -5.63294083 9.50558765 0 0 Z " fill="#0677AE" transform="translate(86,59)"/>
<path d="M0 0 C0 0.66 0 1.32 0 2 C-1.37695312 3.23681641 -1.37695312 3.23681641 -3.28125 4.6015625 C-3.95800781 5.09140625 -4.63476562 5.58125 -5.33203125 6.0859375 C-6.04746094 6.59382813 -6.76289062 7.10171875 -7.5 7.625 C-8.21542969 8.140625 -8.93085937 8.65625 -9.66796875 9.1875 C-11.44120429 10.46422959 -13.21859948 11.73470027 -15 13 C-18.31185602 9.75786727 -21.43033762 6.45457099 -24.375 2.875 C-25.08398438 2.02679688 -25.79296875 1.17859375 -26.5234375 0.3046875 C-27.01070313 -0.45585938 -27.49796875 -1.21640625 -28 -2 C-27.67 -2.99 -27.34 -3.98 -27 -5 C-18.11204072 -8.53137668 -7.96356273 -3.76636213 0 0 Z " fill="#0777AE" transform="translate(118,60)"/>
<path d="M0 0 C0.87288646 2.97052057 1.0544172 5.47690268 0.9375 8.5625 C0.86180636 14.20588101 1.82817241 19.49659541 3 25 C1.04653795 26.67268922 -0.91229814 28.33821581 -2.875 30 C-3.43058594 30.47695312 -3.98617187 30.95390625 -4.55859375 31.4453125 C-8.7734375 35 -8.7734375 35 -11 35 C-12.00529129 21.35037833 -8.17169807 10.867516 0 0 Z " fill="#0676AE" transform="translate(79,64)"/>
<path d="M0 0 C1.22976562 -0.01160156 1.22976562 -0.01160156 2.484375 -0.0234375 C7.17679448 -0.00834933 10.96427937 0.45145372 15.375 2.25 C13.73025469 3.94458607 12.06969849 5.60614246 10.375 7.25 C9.50875 8.09304687 9.50875 8.09304687 8.625 8.953125 C8.026875 9.50484375 7.42875 10.0565625 6.8125 10.625 C6.25433594 11.14835937 5.69617188 11.67171875 5.12109375 12.2109375 C3.375 13.25 3.375 13.25 1.515625 13.06640625 C-1.13066753 12.05714505 -3.72046036 10.95435276 -6.3125 9.8125 C-11.40383635 7.65102469 -16.19303587 6.24586009 -21.625 5.25 C-15.70432529 -0.17728515 -7.58183441 -0.07220795 0 0 Z " fill="#0777AE" transform="translate(118.625,45.75)"/>
<path d="M0 0 C3.2017485 3.11327185 6.10799072 6.25951721 8.8125 9.8125 C9.41707031 10.60269531 10.02164063 11.39289063 10.64453125 12.20703125 C11.09183594 12.79871094 11.53914063 13.39039063 12 14 C11.67 14.66 11.34 15.32 11 16 C2.51641986 18.82786005 -5.20029766 16.78987706 -13 13 C-13 12.01 -13 11.02 -13 10 C-10.86974265 8.14187717 -8.7760903 6.47106476 -6.5 4.8125 C-5.87996094 4.34908203 -5.25992188 3.88566406 -4.62109375 3.40820312 C-3.08707119 2.2635863 -1.54433057 1.13067059 0 0 Z " fill="#0E4A70" transform="translate(136,122)"/>
<path d="M0 0 C2.69216321 5.38432642 1.89663445 15.15739473 0.10546875 20.8359375 C-1 23 -1 23 -3 26 C-7.54109672 21.73412126 -11.24735246 16.96387672 -15 12 C-12.03693129 8.94433539 -8.98279839 6.02864172 -5.8125 3.1875 C-5.13832031 2.58292969 -4.46414062 1.97835937 -3.76953125 1.35546875 C-2 0 -2 0 0 0 Z " fill="#0C4A70" transform="translate(154,109)"/>
<path d="M0 0 C2.44670688 0.86400564 4.81240011 1.80551116 7.18359375 2.859375 C12.00654052 4.85807366 16.23822856 5.52419015 21.43359375 5.859375 C11.01587292 12.80452222 -1.63296305 13.02909194 -13.56640625 10.859375 C-13.56640625 9.869375 -13.56640625 8.879375 -13.56640625 7.859375 C-11.3359375 5.78125 -11.3359375 5.78125 -8.37890625 3.609375 C-7.41597656 2.88234375 -6.45304687 2.1553125 -5.4609375 1.40625 C-2.56640625 -0.140625 -2.56640625 -0.140625 0 0 Z " fill="#0F4B71" transform="translate(120.56640625,136.140625)"/>
<path d="M0 0 C-0.254169 12.61602477 -3.39819794 24.48185476 -12 34 C-14.42600422 26.72198733 -14.74068572 17.46091891 -13 10 C-10.78925353 6.27839162 -4.68794888 0 0 0 Z " fill="#0F4B71" transform="translate(170,96)"/>
<path d="M0 0 C0.66 2.97 1.32 5.94 2 9 C-6.25 9 -14.5 9 -23 9 C-21 2 -21 2 -19 0 C-16.32504551 -0.33473315 -13.74743998 -0.55762164 -11.0625 -0.6875 C-10.33353516 -0.73455078 -9.60457031 -0.78160156 -8.85351562 -0.83007812 C-5.58041124 -1.01308396 -3.1375757 -1.04585857 0 0 Z " fill="#8B533E" transform="translate(131,165)"/>
<path d="M0 0 C0.33 0 0.66 0 1 0 C1.75363052 3.35091771 2.11979937 6.43109812 2.09765625 9.86328125 C2.09282227 11.19262695 2.09282227 11.19262695 2.08789062 12.54882812 C2.07951172 13.46083984 2.07113281 14.37285156 2.0625 15.3125 C2.05798828 16.24384766 2.05347656 17.17519531 2.04882812 18.13476562 C2.03709234 20.42324373 2.02067363 22.71158808 2 25 C0.35 25.33 -1.3 25.66 -3 26 C-2.8453125 25.35160156 -2.690625 24.70320313 -2.53125 24.03515625 C-1.72550371 19.43173808 -1.60954506 14.81300481 -1.39453125 10.15039062 C-1.21511483 6.63939687 -0.93169699 3.38777474 0 0 Z " fill="#EEF1F4" transform="translate(156,106)"/>
<path d="M0 0 C0.66 0.33 1.32 0.66 2 1 C-1.41940033 7.51314349 -7.01815804 10.93647287 -13 15 C-13 10.89413353 -11.80438641 10.00958542 -9 7 C-6.06824499 4.57284998 -3.0570396 2.26665115 0 0 Z " fill="#EDF2F5" transform="translate(136,83)"/>
<path d="M0 0 C0.66 0.33 1.32 0.66 2 1 C-0.39322241 6.23517403 -4.16098377 8.29888643 -9 11 C-7.26534882 7.22552753 -5.01646317 4.86564001 -2 2 C-1.34 1.34 -0.68 0.68 0 0 Z " fill="#EEF3F6" transform="translate(153,70)"/>
<path d="M0 0 C0.33 0 0.66 0 1 0 C1.33 2.97 1.66 5.94 2 9 C1.34 9 0.68 9 0 9 C0 11.97 0 14.94 0 18 C-0.33 18 -0.66 18 -1 18 C-1.02707139 15.75006641 -1.04642829 13.50003905 -1.0625 11.25 C-1.07410156 9.99703125 -1.08570313 8.7440625 -1.09765625 7.453125 C-1.02021027 4.71463499 -0.82780815 2.58119707 0 0 Z " fill="#CBD5DD" transform="translate(156,106)"/>
<path d="M0 0 C0.66 0.33 1.32 0.66 2 1 C-1.465 3.97 -1.465 3.97 -5 7 C-5 6.01 -5 5.02 -5 4 C-2.5 1.8125 -2.5 1.8125 0 0 Z " fill="#06436B" transform="translate(145,115)"/>
<path d="M0 0 C0.66 0.33 1.32 0.66 2 1 C0.12050295 4.57104439 -1.17053157 6.54744301 -5 8 C-3.62845496 5.04590299 -2.01136276 2.55991624 0 0 Z " fill="#EDF0F3" transform="translate(163,97)"/>
<path d="M0 0 C0.66 0.33 1.32 0.66 2 1 C-1.625 6.875 -1.625 6.875 -5 8 C-3.62845496 5.04590299 -2.01136276 2.55991624 0 0 Z " fill="#E6ECF1" transform="translate(136,83)"/>
</svg>
